<?xml version="1.0" standalone="no"?>
<!DOCTYPE svg PUBLIC "-//W3C//DTD SVG 20010904//EN"
 "http://www.w3.org/TR/2001/REC-SVG-20010904/DTD/svg10.dtd">
<svg version="1.0" xmlns="http://www.w3.org/2000/svg"
 width="512.000000pt" height="512.000000pt" viewBox="0 0 512.000000 512.000000"
 preserveAspectRatio="xMidYMid meet">
<metadata>
Created by potrace 1.11, written by Peter Selinger 2001-2013
</metadata>
<g transform="translate(0.000000,512.000000) scale(0.100000,-0.100000)"
fill="#000000" stroke="none">
<path d="M5111 5074 c0 -11 3 -14 6 -6 3 7 2 16 -1 19 -3 4 -6 -2 -5 -13z"/>
<path d="M5111 4914 c0 -11 3 -14 6 -6 3 7 2 16 -1 19 -3 4 -6 -2 -5 -13z"/>
<path d="M5105 4591 c-3 -5 -1 -12 5 -16 5 -3 10 1 10 9 0 18 -6 21 -15 7z"/>
<path d="M5111 4424 c0 -11 3 -14 6 -6 3 7 2 16 -1 19 -3 4 -6 -2 -5 -13z"/>
<path d="M5105 4260 c-3 -5 -1 -10 4 -10 6 0 11 5 11 10 0 6 -2 10 -4 10 -3 0
-8 -4 -11 -10z"/>
<path d="M1602 4153 c-5 -10 -22 -93 -37 -185 l-28 -168 -136 0 -136 0 2 -162
2 -163 106 -3 106 -3 -5 -27 c-3 -15 -12 -70 -21 -122 -9 -52 -20 -118 -26
-147 l-10 -52 -120 -3 -120 -3 0 -157 c0 -87 1 -162 1 -168 0 -6 37 -10 90
-10 50 0 90 -3 90 -7 0 -5 -12 -81 -26 -170 l-27 -162 -136 -3 -136 -3 -3
-154 c-1 -88 1 -157 7 -160 5 -3 660 -5 1455 -3 l1447 2 -3 158 -3 157 -799 3
-798 2 5 28 c3 15 15 91 27 170 l23 142 171 1 c94 1 472 5 840 8 l669 6 -1
150 c0 83 -1 156 -1 163 -1 9 -170 12 -812 12 -767 0 -810 1 -805 18 2 9 17
88 32 175 l27 157 824 0 823 0 0 165 0 165 -90 0 c-75 0 -90 3 -90 16 0 9 12
85 26 170 14 85 23 161 20 169 -4 12 -34 15 -166 15 -157 0 -161 0 -170 -22
-7 -18 -60 -318 -60 -342 0 -3 -78 -6 -174 -6 l-173 0 28 163 c16 89 29 172
29 185 l0 22 -167 -2 -168 -3 -27 -150 c-15 -82 -30 -165 -33 -182 l-6 -33
-184 0 c-102 0 -185 3 -185 6 0 3 14 81 30 175 17 93 28 174 25 179 -4 6 -73
10 -166 10 -156 0 -160 0 -169 -22 -7 -18 -60 -318 -60 -342 0 -3 -79 -6 -176
-6 -162 0 -175 1 -170 18 13 43 56 327 52 339 -4 10 -41 13 -165 13 -143 0
-161 -2 -169 -17z m575 -695 c-7 -30 -57 -325 -57 -338 0 -6 -67 -10 -184 -10
l-184 0 9 38 c4 20 17 93 29 162 11 69 23 135 25 148 5 22 7 22 186 22 l181 0
-5 -22z m-132 -700 c-2 -13 -14 -79 -25 -148 -11 -69 -23 -135 -25 -147 -5
-23 -7 -23 -176 -23 l-171 0 5 28 c3 15 16 91 28 170 l23 142 173 0 173 0 -5
-22z"/>
<path d="M5111 4094 c0 -11 3 -14 6 -6 3 7 2 16 -1 19 -3 4 -6 -2 -5 -13z"/>
<path d="M5111 3934 c0 -11 3 -14 6 -6 3 7 2 16 -1 19 -3 4 -6 -2 -5 -13z"/>
<path d="M5111 3764 c0 -11 3 -14 6 -6 3 7 2 16 -1 19 -3 4 -6 -2 -5 -13z"/>
<path d="M5111 3604 c0 -11 3 -14 6 -6 3 7 2 16 -1 19 -3 4 -6 -2 -5 -13z"/>
<path d="M5111 3274 c0 -11 3 -14 6 -6 3 7 2 16 -1 19 -3 4 -6 -2 -5 -13z"/>
<path d="M5111 3114 c0 -11 3 -14 6 -6 3 7 2 16 -1 19 -3 4 -6 -2 -5 -13z"/>
<path d="M5105 2950 c-3 -5 -1 -10 4 -10 6 0 11 5 11 10 0 6 -2 10 -4 10 -3 0
-8 -4 -11 -10z"/>
<path d="M5111 2784 c0 -11 3 -14 6 -6 3 7 2 16 -1 19 -3 4 -6 -2 -5 -13z"/>
<path d="M5105 2461 c-3 -5 -1 -12 5 -16 5 -3 10 1 10 9 0 18 -6 21 -15 7z"/>
<path d="M5111 2294 c0 -11 3 -14 6 -6 3 7 2 16 -1 19 -3 4 -6 -2 -5 -13z"/>
<path d="M5105 2130 c-3 -5 -1 -10 4 -10 6 0 11 5 11 10 0 6 -2 10 -4 10 -3 0
-8 -4 -11 -10z"/>
<path d="M5105 1971 c-3 -5 -1 -12 5 -16 5 -3 10 1 10 9 0 18 -6 21 -15 7z"/>
<path d="M5111 1804 c0 -11 3 -14 6 -6 3 7 2 16 -1 19 -3 4 -6 -2 -5 -13z"/>
<path d="M950 1585 l0 -165 91 0 91 0 -6 -27 c-7 -37 -56 -329 -56 -337 0 -4
78 -5 172 -4 l173 3 30 180 31 180 173 3 173 2 -6 -27 c-7 -36 -56 -329 -56
-337 0 -3 76 -6 169 -6 l169 0 6 28 c11 52 56 321 56 331 0 7 64 11 190 11
145 0 190 -3 190 -12 0 -12 -36 -217 -55 -321 l-7 -37 173 2 174 3 32 180 c17
99 32 181 32 183 1 1 78 2 172 2 l171 0 -6 -27 c-7 -35 -56 -331 -56 -338 0
-3 78 -4 172 -3 l173 3 30 180 30 180 138 3 137 3 -2 162 -3 162 -1447 3
-1448 2 0 -165z"/>
<path d="M5111 1634 c0 -11 3 -14 6 -6 3 7 2 16 -1 19 -3 4 -6 -2 -5 -13z"/>
<path d="M5111 1474 c0 -11 3 -14 6 -6 3 7 2 16 -1 19 -3 4 -6 -2 -5 -13z"/>
<path d="M5105 1151 c-3 -5 -1 -12 5 -16 5 -3 10 1 10 9 0 18 -6 21 -15 7z"/>
<path d="M5111 984 c0 -11 3 -14 6 -6 3 7 2 16 -1 19 -3 4 -6 -2 -5 -13z"/>
<path d="M5105 820 c-3 -5 -1 -10 4 -10 6 0 11 5 11 10 0 6 -2 10 -4 10 -3 0
-8 -4 -11 -10z"/>
<path d="M5111 654 c0 -11 3 -14 6 -6 3 7 2 16 -1 19 -3 4 -6 -2 -5 -13z"/>
<path d="M5111 324 c0 -11 3 -14 6 -6 3 7 2 16 -1 19 -3 4 -6 -2 -5 -13z"/>
<path d="M5111 164 c0 -11 3 -14 6 -6 3 7 2 16 -1 19 -3 4 -6 -2 -5 -13z"/>
</g>
</svg>
